G04 DipTrace 3.0.0.2*
G04 BottomMask.gbr*
%MOMM*%
G04 #@! TF.FileFunction,Soldermask,Bot*
G04 #@! TF.Part,Single*
%AMOUTLINE1*
4,1,8,
-0.79142,0.6,
-1.1,0.29142,
-1.1,-0.29142,
-0.79142,-0.6,
0.79142,-0.6,
1.1,-0.29142,
1.1,0.29142,
0.79142,0.6,
-0.79142,0.6,
0*%
%ADD21R,1.7X1.7*%
%ADD22C,1.7*%
%ADD27C,5.5*%
%ADD37C,1.85*%
%ADD39O,2.2X1.2*%
%ADD41C,1.9*%
%ADD42R,1.9X1.9*%
%ADD43C,5.0*%
%ADD45C,1.89*%
%ADD47R,1.89X1.89*%
%ADD51C,1.8*%
%ADD53C,1.8*%
%ADD58OUTLINE1*%
%FSLAX35Y35*%
G04*
G71*
G90*
G75*
G01*
G04 BotMask*
%LPD*%
D53*
X2428747Y3767000D3*
D51*
X2682747D3*
D53*
X2428747Y3259000D3*
D51*
X2682747D3*
D53*
X2428747Y2751000D3*
D51*
X2682747D3*
D53*
X2428747Y2243000D3*
D51*
X2682747D3*
D21*
X3159000Y3830500D3*
D22*
Y4840500D3*
D27*
X2500000Y1600000D3*
Y4400000D3*
X6400000Y3300000D3*
D47*
X1622000Y2040500D3*
D45*
Y2317500D3*
Y2594500D3*
Y2871500D3*
Y3148500D3*
Y3425500D3*
Y3702500D3*
Y3979500D3*
X1338000Y2179000D3*
Y2456000D3*
Y2733000D3*
Y3010000D3*
Y3287000D3*
Y3564000D3*
Y3841000D3*
D43*
X1480000Y1344000D3*
Y4676000D3*
D42*
X6969000Y4703623D3*
D41*
X6715000D3*
X6461000D3*
X6207000D3*
X5953000D3*
D42*
X6969000Y4036873D3*
D41*
X6715000D3*
X6461000D3*
X6207000D3*
X5953000D3*
D58*
X3540000Y4275000D3*
D39*
Y4402000D3*
Y4529000D3*
D58*
Y3386000D3*
D39*
Y3513000D3*
Y3640000D3*
D58*
Y2497000D3*
D39*
Y2624000D3*
Y2751000D3*
D58*
Y1608000D3*
D39*
Y1735000D3*
Y1862000D3*
D37*
X3159000Y3592377D3*
Y2557377D3*
X5889500Y1941377D3*
X6924500D3*
X3159000Y1290500D3*
Y2325500D3*
X6924500Y1623873D3*
X5889500D3*
Y1306373D3*
X6924500D3*
D42*
X6210000Y2381100D3*
D41*
X6440003D3*
X6670003D3*
X6900000D3*
X7130003D3*
X7360000D3*
D21*
X4000377Y4703627D3*
D22*
Y4449627D3*
Y4195627D3*
Y3941627D3*
Y3687627D3*
Y3433627D3*
Y3179627D3*
Y2925627D3*
Y2671627D3*
Y2417627D3*
Y2163627D3*
Y1909627D3*
Y1655627D3*
Y1401627D3*
X5520377D3*
Y1655627D3*
Y1909627D3*
Y2163627D3*
Y2417627D3*
Y2671627D3*
Y2925627D3*
Y3179627D3*
Y3433627D3*
Y3687627D3*
Y3941627D3*
Y4195627D3*
Y4449627D3*
Y4703627D3*
M02*
