G04 DipTrace 3.0.0.2*
G04 Bottom.gbr*
%MOMM*%
G04 #@! TF.FileFunction,Copper,L2,Bot*
G04 #@! TF.Part,Single*
%AMOUTLINE0*
4,1,8,
-0.75,0.5,
-1.0,0.25,
-1.0,-0.25,
-0.75,-0.5,
0.75,-0.5,
1.0,-0.25,
1.0,0.25,
0.75,0.5,
-0.75,0.5,
0*%
G04 #@! TA.AperFunction,Conductor*
%ADD13C,0.3048*%
G04 #@! TA.AperFunction,ComponentPad*
%ADD14C,1.6*%
%ADD15C,1.6*%
%ADD16R,1.5X1.5*%
%ADD17C,1.5*%
%ADD18R,1.69X1.69*%
%ADD19C,1.69*%
%ADD20C,4.8*%
%ADD21R,1.7X1.7*%
%ADD22C,1.7*%
%ADD23O,2.0X1.0*%
%ADD24C,1.65*%
G04 #@! TA.AperFunction,ViaPad*
%ADD25C,1.016*%
G04 #@! TA.AperFunction,ComponentPad*
%ADD57OUTLINE0*%
%FSLAX35Y35*%
G04*
G71*
G90*
G75*
G01*
G04 Bottom*
%LPD*%
X5520377Y4449627D2*
D13*
X5892041D1*
X5953000Y4388668D1*
Y4036873D1*
X3159000Y3830500D2*
X3746680D1*
X3807640Y3891460D1*
Y4255391D1*
X3868600Y4316351D1*
X4060141D1*
X4121101Y4377311D1*
Y4582902D1*
X4000377Y4703627D1*
X2682747Y3767000D2*
Y3259000D1*
X1480000Y1344000D2*
Y2729500D1*
X1622000Y2871500D1*
X5889500Y1306373D2*
X6078679Y1495553D1*
Y1752197D1*
X5889500Y1941377D1*
X1622000Y2871500D2*
X1476500D1*
X1338000Y3010000D1*
X5892041Y4449627D2*
X5952997D1*
X5953000Y4449630D1*
Y4703623D1*
X7360000Y2381100D2*
X7153081Y2174181D1*
X7052721D1*
Y1752094D1*
X6924500Y1623873D1*
X6207000Y4036873D2*
X6770720Y3473153D1*
Y2970380D1*
X7360000Y2381100D1*
X5953000Y4036873D2*
X6207000D1*
X2682747Y2243000D2*
X3159000Y1766747D1*
Y1290500D1*
X2682747Y2751000D2*
Y2243000D1*
Y3259000D2*
Y2751000D1*
X1622000Y3148500D2*
X1255239D1*
X1194280Y3209460D1*
Y4390280D1*
X1480000Y4676000D1*
X1622000Y2871500D2*
Y3148500D1*
X6210000Y2381100D2*
X6416919Y2174181D1*
X7052721D1*
X5889500Y1941377D2*
Y2320140D1*
X5950460Y2381100D1*
X6210000D1*
X6969000Y4703623D2*
Y4036873D1*
X6715000Y4703623D2*
Y4036873D1*
X6461000Y4703623D2*
Y4036873D1*
X1622000Y2317500D2*
X1822220Y2117280D1*
X2493510D1*
X2554470Y2178240D1*
Y3890261D1*
X2615430Y3951221D1*
X3685720D1*
X3746680Y4012181D1*
Y4388660D1*
X3807647Y4449627D1*
X4000377D1*
Y4195627D2*
X4121100D1*
X4182061Y4256588D1*
Y4763391D1*
X4121101Y4824351D1*
X3746680D1*
X3685720Y4763391D1*
Y4073141D1*
X3624760Y4012181D1*
X2284133D1*
X1974451Y3702500D1*
X1622000D1*
X3159000Y2325500D2*
X3287219Y2453719D1*
Y3325040D1*
X3348179Y3386000D1*
X3540000D1*
X4991770Y1532610D2*
X3761110D1*
X3685720Y1608000D1*
X3540000D1*
X2428747Y3767000D2*
X2217467Y3555720D1*
X1468221D1*
Y3429221D1*
X1456220Y3417219D1*
X3540000Y3640000D2*
X3685720D1*
X3746680Y3579040D1*
Y2091311D1*
X3807640Y2030351D1*
X5399652D1*
X5520377Y1909627D1*
X2428747Y3259000D2*
X2262247Y3425500D1*
X1622000D1*
X3540000Y2751000D2*
Y3004200D1*
X1848741Y2732999D2*
D3*
X2428747Y2751000D2*
X2428750Y3004200D1*
X1848741Y2732999D2*
X1866742Y2751000D1*
X2428747D1*
Y2243000D2*
X2107427Y2564320D1*
X1813181D1*
X1752221Y2625280D1*
Y3226041D1*
X1691262Y3287000D1*
X1338000D1*
X3540000Y1862000D2*
X3394280D1*
Y1341859D1*
X3455240Y1280899D1*
X5580141D1*
X5641101Y1341859D1*
Y2296903D1*
X5520377Y2417627D1*
X3540000Y4402000D2*
X3394280D1*
Y4824351D1*
X3455240Y4885311D1*
X4243021D1*
X4303981Y4824351D1*
Y3869311D1*
X4243021Y3808351D1*
X3904922D1*
X3832290Y3735720D1*
X3430569D1*
X3287219Y3592370D1*
X3366589Y3513000D1*
X3540000D1*
X3394280Y4824351D2*
Y4885311D1*
X3324532D1*
X3279721Y4840500D1*
X3159000D1*
X3540000Y3513000D2*
X3685720D1*
Y2624000D1*
Y1735000D1*
X3540000D1*
X3685720Y2624000D2*
X3540000D1*
X3159000Y3592377D2*
X3287219Y3592370D1*
X3159000Y3592377D2*
D3*
X4000377Y3433627D2*
X4133652Y3300351D1*
X5641101D1*
X6210071Y2731381D1*
X6379039D1*
X6440003Y2670417D1*
Y2381100D1*
D25*
X4991770Y1532610D3*
X1456220Y3417219D3*
X3540000Y3004200D3*
X2428750D3*
X1848741Y2732999D3*
D14*
X2428747Y3767000D3*
D15*
X2682747D3*
D14*
X2428747Y3259000D3*
D15*
X2682747D3*
D14*
X2428747Y2751000D3*
D15*
X2682747D3*
D14*
X2428747Y2243000D3*
D15*
X2682747D3*
D16*
X3159000Y3830500D3*
D17*
Y4840500D3*
D18*
X1622000Y2040500D3*
D19*
Y2317500D3*
Y2594500D3*
Y2871500D3*
Y3148500D3*
Y3425500D3*
Y3702500D3*
Y3979500D3*
X1338000Y2179000D3*
Y2456000D3*
Y2733000D3*
Y3010000D3*
Y3287000D3*
Y3564000D3*
Y3841000D3*
D20*
X1480000Y1344000D3*
Y4676000D3*
D21*
X6969000Y4703623D3*
D22*
X6715000D3*
X6461000D3*
X6207000D3*
X5953000D3*
D21*
X6969000Y4036873D3*
D22*
X6715000D3*
X6461000D3*
X6207000D3*
X5953000D3*
D57*
X3540000Y4275000D3*
D23*
Y4402000D3*
Y4529000D3*
D57*
Y3386000D3*
D23*
Y3513000D3*
Y3640000D3*
D57*
Y2497000D3*
D23*
Y2624000D3*
Y2751000D3*
D57*
Y1608000D3*
D23*
Y1735000D3*
Y1862000D3*
D24*
X3159000Y3592377D3*
Y2557377D3*
X5889500Y1941377D3*
X6924500D3*
X3159000Y1290500D3*
Y2325500D3*
X6924500Y1623873D3*
X5889500D3*
Y1306373D3*
X6924500D3*
D21*
X6210000Y2381100D3*
D22*
X6440003D3*
X6670003D3*
X6900000D3*
X7130003D3*
X7360000D3*
D16*
X4000377Y4703627D3*
D17*
Y4449627D3*
Y4195627D3*
Y3941627D3*
Y3687627D3*
Y3433627D3*
Y3179627D3*
Y2925627D3*
Y2671627D3*
Y2417627D3*
Y2163627D3*
Y1909627D3*
Y1655627D3*
Y1401627D3*
X5520377D3*
Y1655627D3*
Y1909627D3*
Y2163627D3*
Y2417627D3*
Y2671627D3*
Y2925627D3*
Y3179627D3*
Y3433627D3*
Y3687627D3*
Y3941627D3*
Y4195627D3*
Y4449627D3*
Y4703627D3*
M02*
