M48
METRIC,0000.00
T01C0.508
T02C0.7
T03C0.9
T04C1.0
T05C1.09
T06C1.1
T07C3.18
T08C5.5
%
T01
X+004992Y+001533
X+003540Y+003004
X+002429Y+003004
X+001849Y+002733
X+001456Y+003417
T02
X+003540Y+004275
X+003540Y+004402
X+003540Y+004529
X+003540Y+003640
X+003540Y+003513
X+003540Y+003386
X+003540Y+002751
X+003540Y+002624
X+003540Y+002497
X+003540Y+001862
X+003540Y+001735
X+003540Y+001608
T03
X+003159Y+003831
X+004000Y+003942
X+004000Y+004196
X+004000Y+004450
X+004000Y+004704
X+003159Y+004840
X+004000Y+003688
X+004000Y+003434
X+004000Y+003180
X+004000Y+002926
X+004000Y+002672
X+004000Y+002418
X+004000Y+002164
X+004000Y+001910
X+004000Y+001656
X+004000Y+001402
X+005520Y+001402
X+005520Y+001656
X+005520Y+001910
X+005520Y+002164
X+005520Y+002418
X+005520Y+002672
X+005520Y+002926
X+005520Y+003180
X+005520Y+003434
X+005520Y+003688
X+005520Y+003942
X+005520Y+004196
X+005520Y+004450
X+005520Y+004704
T04
X+002429Y+003767
X+002683Y+003767
X+003159Y+003592
X+002683Y+003259
X+002429Y+003259
X+002429Y+002751
X+002683Y+002751
X+002683Y+002243
X+002429Y+002243
X+003159Y+002325
X+003159Y+002557
X+003159Y+001291
X+005890Y+001306
X+005890Y+001624
X+005890Y+001941
X+006925Y+001941
X+006925Y+001624
X+006925Y+001306
T05
X+001622Y+002040
X+001622Y+002318
X+001622Y+002595
X+001622Y+002872
X+001622Y+003148
X+001622Y+003425
X+001622Y+003702
X+001622Y+003980
X+001338Y+003841
X+001338Y+003564
X+001338Y+003287
X+001338Y+003010
X+001338Y+002733
X+001338Y+002456
X+001338Y+002179
T06
X+006969Y+004704
X+006715Y+004704
X+006461Y+004704
X+006207Y+004704
X+005953Y+004704
X+005953Y+004037
X+006207Y+004037
X+006461Y+004037
X+006715Y+004037
X+006969Y+004037
X+006900Y+002381
X+006670Y+002381
X+006440Y+002381
X+006210Y+002381
X+007130Y+002381
X+007360Y+002381
T07
X+001480Y+001344
X+001480Y+004676
T08
X+002500Y+001600
X+002500Y+004400
X+006400Y+003300
T00
M30
