G04 DipTrace 3.0.0.2*
G04 TopAssy.gbr*
%MOMM*%
G04 #@! TF.FileFunction,Drawing,Top*
G04 #@! TF.Part,Single*
%ADD10C,0.25*%
%ADD56C,0.07843*%
%FSLAX35Y35*%
G04*
G71*
G90*
G75*
G01*
G04 TopAssy*
%LPD*%
X7221000Y4551632D2*
D10*
X5701000D1*
X7221000Y3884882D2*
X5701000D1*
X6713654Y4454353D2*
D56*
Y4505397D1*
X6691754D1*
X6684454Y4502927D1*
X6682040Y4500512D1*
X6679625Y4495683D1*
Y4488383D1*
X6682040Y4483497D1*
X6684454Y4481083D1*
X6691754Y4478668D1*
X6684454Y4476197D1*
X6682040Y4473783D1*
X6679625Y4468954D1*
Y4464068D1*
X6682040Y4459239D1*
X6684454Y4456768D1*
X6691754Y4454353D1*
X6713654D1*
Y4478668D2*
X6691754D1*
X6649339Y4454354D2*
X6654224Y4456768D1*
X6659053Y4461654D1*
X6661524Y4466483D1*
X6663939Y4473783D1*
Y4485968D1*
X6661524Y4493212D1*
X6659053Y4498097D1*
X6654224Y4502927D1*
X6649339Y4505397D1*
X6639624D1*
X6634795Y4502927D1*
X6629910Y4498097D1*
X6627495Y4493212D1*
X6625080Y4485968D1*
Y4473783D1*
X6627495Y4466483D1*
X6629910Y4461654D1*
X6634795Y4456768D1*
X6639624Y4454354D1*
X6649339D1*
X6570480Y4505397D2*
X6589965Y4454354D1*
X6609394Y4505397D1*
X6602094Y4488383D2*
X6577780D1*
X6554793Y4478668D2*
X6532949D1*
X6525649Y4476197D1*
X6523179Y4473783D1*
X6520764Y4468953D1*
Y4464068D1*
X6523179Y4459239D1*
X6525649Y4456768D1*
X6532949Y4454353D1*
X6554793D1*
Y4505397D1*
X6537779Y4478668D2*
X6520764Y4505397D1*
X6505078Y4454353D2*
Y4505397D1*
X6488063D1*
X6480763Y4502926D1*
X6475878Y4498097D1*
X6473463Y4493212D1*
X6471049Y4485968D1*
Y4473783D1*
X6473463Y4466483D1*
X6475878Y4461653D1*
X6480763Y4456768D1*
X6488063Y4454353D1*
X6505078D1*
X6374425D2*
X6405984D1*
Y4505397D1*
X6374425D1*
X6405984Y4478668D2*
X6386554D1*
X6358739Y4454353D2*
Y4505397D1*
X6341724D1*
X6334424Y4502926D1*
X6329539Y4498097D1*
X6327124Y4493212D1*
X6324710Y4485968D1*
Y4473783D1*
X6327124Y4466483D1*
X6329539Y4461653D1*
X6334424Y4456768D1*
X6341724Y4454353D1*
X6358739D1*
X6272580Y4466483D2*
X6274994Y4461653D1*
X6279880Y4456768D1*
X6284709Y4454353D1*
X6294423D1*
X6299309Y4456768D1*
X6304138Y4461653D1*
X6306609Y4466483D1*
X6309023Y4473783D1*
Y4485968D1*
X6306609Y4493212D1*
X6304138Y4498097D1*
X6299309Y4502926D1*
X6294423Y4505397D1*
X6284709D1*
X6279880Y4502926D1*
X6274994Y4498097D1*
X6272580Y4493212D1*
Y4485968D1*
X6284709D1*
X6225335Y4454353D2*
X6256893D1*
Y4505397D1*
X6225335D1*
X6256893Y4478668D2*
X6237464D1*
X6713654Y3787603D2*
Y3838647D1*
X6691754D1*
X6684454Y3836177D1*
X6682040Y3833762D1*
X6679625Y3828933D1*
Y3821633D1*
X6682040Y3816747D1*
X6684454Y3814333D1*
X6691754Y3811918D1*
X6684454Y3809447D1*
X6682040Y3807033D1*
X6679625Y3802204D1*
Y3797318D1*
X6682040Y3792489D1*
X6684454Y3790018D1*
X6691754Y3787603D1*
X6713654D1*
Y3811918D2*
X6691754D1*
X6649339Y3787604D2*
X6654224Y3790018D1*
X6659053Y3794904D1*
X6661524Y3799733D1*
X6663939Y3807033D1*
Y3819218D1*
X6661524Y3826462D1*
X6659053Y3831347D1*
X6654224Y3836177D1*
X6649339Y3838647D1*
X6639624D1*
X6634795Y3836177D1*
X6629910Y3831347D1*
X6627495Y3826462D1*
X6625080Y3819218D1*
Y3807033D1*
X6627495Y3799733D1*
X6629910Y3794904D1*
X6634795Y3790018D1*
X6639624Y3787604D1*
X6649339D1*
X6570480Y3838647D2*
X6589965Y3787604D1*
X6609394Y3838647D1*
X6602094Y3821633D2*
X6577780D1*
X6554793Y3811918D2*
X6532949D1*
X6525649Y3809447D1*
X6523179Y3807033D1*
X6520764Y3802203D1*
Y3797318D1*
X6523179Y3792489D1*
X6525649Y3790018D1*
X6532949Y3787603D1*
X6554793D1*
Y3838647D1*
X6537779Y3811918D2*
X6520764Y3838647D1*
X6505078Y3787603D2*
Y3838647D1*
X6488063D1*
X6480763Y3836176D1*
X6475878Y3831347D1*
X6473463Y3826462D1*
X6471049Y3819218D1*
Y3807033D1*
X6473463Y3799733D1*
X6475878Y3794903D1*
X6480763Y3790018D1*
X6488063Y3787603D1*
X6505078D1*
X6374425D2*
X6405984D1*
Y3838647D1*
X6374425D1*
X6405984Y3811918D2*
X6386554D1*
X6358739Y3787603D2*
Y3838647D1*
X6341724D1*
X6334424Y3836176D1*
X6329539Y3831347D1*
X6327124Y3826462D1*
X6324710Y3819218D1*
Y3807033D1*
X6327124Y3799733D1*
X6329539Y3794903D1*
X6334424Y3790018D1*
X6341724Y3787603D1*
X6358739D1*
X6272580Y3799733D2*
X6274994Y3794903D1*
X6279880Y3790018D1*
X6284709Y3787603D1*
X6294423D1*
X6299309Y3790018D1*
X6304138Y3794903D1*
X6306609Y3799733D1*
X6309023Y3807033D1*
Y3819218D1*
X6306609Y3826462D1*
X6304138Y3831347D1*
X6299309Y3836176D1*
X6294423Y3838647D1*
X6284709D1*
X6279880Y3836176D1*
X6274994Y3831347D1*
X6272580Y3826462D1*
Y3819218D1*
X6284709D1*
X6225335Y3787603D2*
X6256893D1*
Y3838647D1*
X6225335D1*
X6256893Y3811918D2*
X6237464D1*
M02*
