G04 DipTrace 3.0.0.2*
G04 TopSilk.gbr*
%MOMM*%
G04 #@! TF.FileFunction,Legend,Top*
G04 #@! TF.Part,Single*
%ADD10C,0.25*%
%ADD55C,0.19608*%
%FSLAX35Y35*%
G04*
G71*
G90*
G75*
G01*
G04 TopSilk*
%LPD*%
X2733394Y3919400D2*
D10*
X2378099D1*
X2733394Y3614600D2*
X2378099D1*
Y3919400D2*
G03X2378099Y3614600I-152J-152400D01*
G01*
X2733394D2*
G03X2733394Y3919400I152J152400D01*
G01*
Y3411400D2*
X2378099D1*
X2733394Y3106600D2*
X2378099D1*
Y3411400D2*
G03X2378099Y3106600I-152J-152400D01*
G01*
X2733394D2*
G03X2733394Y3411400I152J152400D01*
G01*
Y2903400D2*
X2378099D1*
X2733394Y2598600D2*
X2378099D1*
Y2903400D2*
G03X2378099Y2598600I-152J-152400D01*
G01*
X2733394D2*
G03X2733394Y2903400I152J152400D01*
G01*
Y2395400D2*
X2378099D1*
X2733394Y2090600D2*
X2378099D1*
Y2395400D2*
G03X2378099Y2090600I-152J-152400D01*
G01*
X2733394D2*
G03X2733394Y2395400I152J152400D01*
G01*
X3274000Y4080300D2*
X3044000D1*
Y4590700D1*
X3274000Y4165096D2*
X3044000D1*
X3274000Y4590700D2*
X3044000D1*
X3274000Y4080300D2*
Y4590700D1*
X-5436Y4674000D2*
G03X-5436Y4422000I127284J-126000D01*
G01*
Y4930000D2*
G03X-5436Y4674000I132225J-128000D01*
G01*
X460818D2*
G03X460818Y4930000I-132225J128000D01*
G01*
Y4422000D2*
G03X460818Y4674000I-127284J126000D01*
G01*
X-5436Y1346000D2*
G03X-5436Y1090000I132225J-128000D01*
G01*
Y1598000D2*
G03X-5436Y1346000I127284J-126000D01*
G01*
X460818D2*
G03X460818Y1598000I-127284J126000D01*
G01*
Y1090000D2*
G03X460818Y1346000I-132225J128000D01*
G01*
X-70193Y1830000D2*
G03X115Y1762000I68913J905D01*
G01*
Y4258000D2*
G03X-70193Y4190000I-1395J-68905D01*
G01*
X529276Y1690000D2*
G03X458968Y1762000I-76043J-3928D01*
G01*
Y4258000D2*
G03X529276Y4330000I-5735J75928D01*
G01*
X460818Y4422000D2*
X523725Y4486000D1*
X460818Y4422000D2*
X-5436D1*
X-7286D2*
X-70193Y4486000D1*
Y4866000D1*
X-7286Y4930000D1*
X120379D2*
X100026D1*
X460818D2*
X-5436D1*
X523725Y4866000D2*
X460818Y4930000D1*
Y4674000D2*
X-5436D1*
X460818Y1090000D2*
X523725Y1154000D1*
X460818Y1090000D2*
X-5436D1*
X-7286D2*
X-70193Y1154000D1*
Y1534000D1*
X-7286Y1598000D1*
X120379D2*
X100026D1*
X460818D2*
X-5436D1*
X523725Y1534000D2*
X460818Y1598000D1*
Y1346000D2*
X-5436D1*
X1780020Y5010000D2*
X529276D1*
X1780020Y1010000D2*
X529276D1*
X458968Y4258000D2*
X115D1*
X458968Y1762000D2*
X115D1*
X-70193Y1830000D2*
Y4190000D1*
X1780020Y1010000D2*
Y5010000D1*
Y4126000D2*
X829010D1*
X529276Y1010000D2*
Y5010000D1*
X1780020Y1894000D2*
X829010D1*
Y1010000D2*
Y5010000D1*
X7096056Y4576619D2*
X5825944D1*
Y4830623D1*
X7096056D1*
Y4576619D1*
Y3909869D2*
X5825944D1*
Y4163873D1*
X7096056D1*
Y3909869D1*
X3405018Y4209924D2*
G03X3405018Y4594076I169086J192076D01*
G01*
Y4209924D1*
Y3320924D2*
G03X3405018Y3705076I169086J192076D01*
G01*
Y3320924D1*
Y2431924D2*
G03X3405018Y2816076I169086J192076D01*
G01*
Y2431924D1*
Y1542924D2*
G03X3405018Y1927076I169086J192076D01*
G01*
Y1542924D1*
X3299000Y3414477D2*
Y2735277D1*
X3019000Y3414477D2*
Y2735277D1*
Y3414477D2*
X3299000D1*
X3019000Y2735277D2*
X3299000D1*
X6067400Y2081377D2*
X6746600D1*
X6067400Y1801377D2*
X6746600D1*
X6067400D2*
Y2081377D1*
X6746600Y1801377D2*
Y2081377D1*
X3019000Y1468400D2*
Y2147600D1*
X3299000Y1468400D2*
Y2147600D1*
Y1468400D2*
X3019000D1*
X3299000Y2147600D2*
X3019000D1*
X6746600Y1483873D2*
X6067400D1*
X6746600Y1763873D2*
X6067400D1*
X6746600D2*
Y1483873D1*
X6067400Y1763873D2*
Y1483873D1*
Y1446373D2*
X6746600D1*
X6067400Y1166373D2*
X6746600D1*
X6067400D2*
Y1446373D1*
X6746600Y1166373D2*
Y1446373D1*
X5781377Y2635100D2*
X7781377D1*
Y2135100D1*
X5781377D1*
Y2635100D1*
X5400321Y4912627D2*
Y1192627D1*
X4120433D2*
X5400321D1*
X4120433Y4912627D2*
Y1192627D1*
Y4912627D2*
X4680384D1*
X5400321D2*
X4840370D1*
X4680384D2*
G03X4840370Y4912627I79993J13D01*
G01*
X2069883Y3777715D2*
D55*
X2057810Y3771679D1*
X2045597Y3759466D1*
X2039560Y3747392D1*
Y3723106D1*
X2045597Y3710892D1*
X2057810Y3698819D1*
X2069883Y3692642D1*
X2088133Y3686606D1*
X2118597D1*
X2136706Y3692642D1*
X2148920Y3698819D1*
X2160993Y3710892D1*
X2167170Y3723106D1*
Y3747392D1*
X2160993Y3759465D1*
X2148920Y3771679D1*
X2136706Y3777715D1*
X2063987Y3816931D2*
X2057810Y3829145D1*
X2039701Y3847395D1*
X2167170Y3847394D1*
X2069883Y3242411D2*
X2057810Y3236374D1*
X2045597Y3224161D1*
X2039560Y3212088D1*
Y3187801D1*
X2045597Y3175588D1*
X2057810Y3163515D1*
X2069883Y3157338D1*
X2088133Y3151301D1*
X2118597D1*
X2136706Y3157338D1*
X2148920Y3163515D1*
X2160993Y3175588D1*
X2167170Y3187801D1*
Y3212087D1*
X2160993Y3224161D1*
X2148920Y3236374D1*
X2136706Y3242411D1*
X2070024Y3287803D2*
X2063987D1*
X2051774Y3293840D1*
X2045737Y3299876D1*
X2039701Y3312090D1*
Y3336376D1*
X2045737Y3348449D1*
X2051774Y3354486D1*
X2063987Y3360663D1*
X2076060D1*
X2088274Y3354486D1*
X2106383Y3342413D1*
X2167170Y3281626D1*
Y3366699D1*
X2069883Y2734411D2*
X2057810Y2728374D1*
X2045597Y2716161D1*
X2039560Y2704088D1*
Y2679801D1*
X2045597Y2667588D1*
X2057810Y2655515D1*
X2069883Y2649338D1*
X2088133Y2643301D1*
X2118597D1*
X2136706Y2649338D1*
X2148920Y2655515D1*
X2160993Y2667588D1*
X2167170Y2679801D1*
Y2704087D1*
X2160993Y2716161D1*
X2148920Y2728374D1*
X2136706Y2734411D1*
X2039701Y2785840D2*
Y2852522D1*
X2088274Y2816163D1*
Y2834413D1*
X2094310Y2846486D1*
X2100347Y2852522D1*
X2118597Y2858699D1*
X2130670D1*
X2148920Y2852522D1*
X2161133Y2840449D1*
X2167170Y2822199D1*
Y2803949D1*
X2161133Y2785840D1*
X2154956Y2779803D1*
X2142883Y2773626D1*
X2069883Y2223392D2*
X2057810Y2217356D1*
X2045597Y2205142D1*
X2039560Y2193069D1*
Y2168783D1*
X2045597Y2156569D1*
X2057810Y2144496D1*
X2069883Y2138319D1*
X2088133Y2132283D1*
X2118597D1*
X2136706Y2138319D1*
X2148920Y2144496D1*
X2160993Y2156569D1*
X2167170Y2168783D1*
Y2193069D1*
X2160993Y2205142D1*
X2148920Y2217356D1*
X2136706Y2223392D1*
X2167170Y2323394D2*
X2039701Y2323395D1*
X2124633Y2262608D1*
Y2353718D1*
X3087544Y4258124D2*
X3215154D1*
Y4300661D1*
X3208977Y4318911D1*
X3196904Y4331124D1*
X3184691Y4337161D1*
X3166581Y4343197D1*
X3136117D1*
X3117867Y4337161D1*
X3105794Y4331124D1*
X3093581Y4318911D1*
X3087544Y4300661D1*
Y4258124D1*
X3111971Y4382413D2*
X3105794Y4394626D1*
X3087685Y4412876D1*
X3215154D1*
X3570527Y4843884D2*
X3558454Y4837988D1*
X3546241Y4825774D1*
X3540204Y4813561D1*
X3534027Y4795311D1*
Y4764988D1*
X3540204Y4746738D1*
X3546241Y4734665D1*
X3558454Y4722451D1*
X3570527Y4716415D1*
X3594814D1*
X3607027Y4722451D1*
X3619100Y4734665D1*
X3625137Y4746738D1*
X3631314Y4764988D1*
Y4795311D1*
X3625137Y4813561D1*
X3619100Y4825774D1*
X3607027Y4837988D1*
X3594814Y4843884D1*
X3570527D1*
X3588777Y4740701D2*
X3625137Y4704201D1*
X3670529Y4819457D2*
X3682743Y4825634D1*
X3700993Y4843743D1*
Y4716274D1*
X3543222Y3954884D2*
X3531149Y3948988D1*
X3518936Y3936774D1*
X3512899Y3924561D1*
X3506722Y3906311D1*
Y3875988D1*
X3512899Y3857738D1*
X3518936Y3845665D1*
X3531149Y3833451D1*
X3543222Y3827415D1*
X3567509D1*
X3579722Y3833451D1*
X3591795Y3845665D1*
X3597832Y3857738D1*
X3604009Y3875988D1*
Y3906311D1*
X3597832Y3924561D1*
X3591795Y3936774D1*
X3579722Y3948988D1*
X3567509Y3954884D1*
X3543222D1*
X3561472Y3851701D2*
X3597832Y3815201D1*
X3649401Y3924420D2*
Y3930457D1*
X3655438Y3942670D1*
X3661475Y3948707D1*
X3673688Y3954743D1*
X3697975D1*
X3710048Y3948707D1*
X3716084Y3942670D1*
X3722261Y3930457D1*
Y3918384D1*
X3716084Y3906170D1*
X3704011Y3888061D1*
X3643225Y3827274D1*
X3728298D1*
X3543222Y3065884D2*
X3531149Y3059988D1*
X3518936Y3047774D1*
X3512899Y3035561D1*
X3506722Y3017311D1*
Y2986988D1*
X3512899Y2968738D1*
X3518936Y2956665D1*
X3531149Y2944451D1*
X3543222Y2938415D1*
X3567509D1*
X3579722Y2944451D1*
X3591795Y2956665D1*
X3597832Y2968738D1*
X3604009Y2986988D1*
Y3017311D1*
X3597832Y3035561D1*
X3591795Y3047774D1*
X3579722Y3059988D1*
X3567509Y3065884D1*
X3543222D1*
X3561472Y2962701D2*
X3597832Y2926201D1*
X3655438Y3065743D2*
X3722121D1*
X3685761Y3017170D1*
X3704011D1*
X3716084Y3011134D1*
X3722121Y3005097D1*
X3728298Y2986847D1*
Y2974774D1*
X3722121Y2956524D1*
X3710048Y2944311D1*
X3691798Y2938274D1*
X3673548D1*
X3655438Y2944311D1*
X3649401Y2950488D1*
X3643225Y2962561D1*
X3540204Y2176884D2*
X3528131Y2170988D1*
X3515918Y2158774D1*
X3509881Y2146561D1*
X3503704Y2128311D1*
Y2097988D1*
X3509881Y2079738D1*
X3515918Y2067665D1*
X3528131Y2055451D1*
X3540204Y2049415D1*
X3564491D1*
X3576704Y2055451D1*
X3588777Y2067665D1*
X3594814Y2079738D1*
X3600991Y2097988D1*
Y2128311D1*
X3594814Y2146561D1*
X3588777Y2158774D1*
X3576704Y2170988D1*
X3564491Y2176884D1*
X3540204D1*
X3558454Y2073701D2*
X3594814Y2037201D1*
X3700993Y2049274D2*
Y2176743D1*
X3640206Y2091811D1*
X3731316D1*
X3148331Y2997501D2*
Y3052110D1*
X3142154Y3070360D1*
X3136117Y3076537D1*
X3124044Y3082574D1*
X3111831D1*
X3099758Y3076537D1*
X3093581Y3070360D1*
X3087544Y3052110D1*
Y2997501D1*
X3215154D1*
X3148331Y3040037D2*
X3215154Y3082574D1*
X3111971Y3121790D2*
X3105794Y3134003D1*
X3087685Y3152253D1*
X3215154D1*
X6302319Y1952046D2*
X6356929D1*
X6375179Y1958223D1*
X6381356Y1964259D1*
X6387392Y1976332D1*
Y1988546D1*
X6381356Y2000619D1*
X6375179Y2006796D1*
X6356929Y2012832D1*
X6302319D1*
Y1885223D1*
X6344856Y1952046D2*
X6387392Y1885223D1*
X6432785Y1982369D2*
Y1988406D1*
X6438821Y2000619D1*
X6444858Y2006656D1*
X6457071Y2012692D1*
X6481358D1*
X6493431Y2006656D1*
X6499467Y2000619D1*
X6505644Y1988406D1*
Y1976332D1*
X6499467Y1964119D1*
X6487394Y1946009D1*
X6426608Y1885223D1*
X6511681D1*
X3148331Y1703319D2*
Y1757929D1*
X3142154Y1776179D1*
X3136117Y1782356D1*
X3124044Y1788392D1*
X3111831D1*
X3099758Y1782356D1*
X3093581Y1776179D1*
X3087544Y1757929D1*
Y1703319D1*
X3215154D1*
X3148331Y1745856D2*
X3215154Y1788392D1*
X3087685Y1839822D2*
Y1906504D1*
X3136258Y1870145D1*
Y1888394D1*
X3142294Y1900468D1*
X3148331Y1906504D1*
X3166581Y1912681D1*
X3178654D1*
X3196904Y1906504D1*
X3209117Y1894431D1*
X3215154Y1876181D1*
Y1857931D1*
X3209117Y1839821D1*
X3202941Y1833785D1*
X3190867Y1827608D1*
X6299301Y1634543D2*
X6353910D1*
X6372160Y1640719D1*
X6378337Y1646756D1*
X6384374Y1658829D1*
Y1671043D1*
X6378337Y1683116D1*
X6372160Y1689293D1*
X6353910Y1695329D1*
X6299301D1*
Y1567719D1*
X6341837Y1634543D2*
X6384374Y1567719D1*
X6484376D2*
Y1695189D1*
X6423590Y1610256D1*
X6514699D1*
X6302319Y1317043D2*
X6356929D1*
X6375179Y1323219D1*
X6381356Y1329256D1*
X6387392Y1341329D1*
Y1353543D1*
X6381356Y1365616D1*
X6375179Y1371793D1*
X6356929Y1377829D1*
X6302319D1*
Y1250219D1*
X6344856Y1317043D2*
X6387392Y1250219D1*
X6499467Y1377689D2*
X6438821D1*
X6432785Y1323079D1*
X6438821Y1329116D1*
X6457071Y1335293D1*
X6475181D1*
X6493431Y1329116D1*
X6505644Y1317043D1*
X6511681Y1298793D1*
Y1286719D1*
X6505644Y1268469D1*
X6493431Y1256256D1*
X6475181Y1250219D1*
X6457071D1*
X6438821Y1256256D1*
X6432785Y1262433D1*
X6426608Y1274506D1*
X6708679Y2802837D2*
X6696606Y2815050D1*
X6678356Y2821087D1*
X6654070D1*
X6635820Y2815050D1*
X6623606Y2802837D1*
Y2790764D1*
X6629783Y2778550D1*
X6635820Y2772514D1*
X6647893Y2766477D1*
X6684393Y2754264D1*
X6696606Y2748227D1*
X6702643Y2742050D1*
X6708679Y2729977D1*
Y2711727D1*
X6696606Y2699654D1*
X6678356Y2693477D1*
X6654070D1*
X6635820Y2699654D1*
X6623606Y2711727D1*
X6747895Y2821087D2*
X6778358Y2693477D1*
X6808681Y2821087D1*
X6839005Y2693477D1*
X6869468Y2821087D1*
X6908684Y2796660D2*
X6920897Y2802837D1*
X6939147Y2820946D1*
Y2693477D1*
X4688921Y2975251D2*
X4780031D1*
X4798281Y2981287D1*
X4810354Y2993501D1*
X4816531Y3011751D1*
Y3023824D1*
X4810354Y3042074D1*
X4798281Y3054287D1*
X4780031Y3060324D1*
X4688921D1*
X4713348Y3099540D2*
X4707171Y3111753D1*
X4689061Y3130003D1*
X4816531D1*
M02*
